<svg width="720" height="883" viewBox="0 0 720 883" fill="none" xmlns="http://www.w3.org/2000/svg">
<path d="M140.198 227.954C129.049 175.377 118.366 171.051 118.366 171.051C118.366 171.051 117.669 173.809 115.375 175.058C115.375 175.058 109.046 173.606 106.84 173.374C104.778 173.142 98.2752 173.258 98.2752 173.258C98.2752 173.258 95.2635 170.29 93.3909 167.912C92.4197 166.678 91.0245 164.697 90.2612 163.599C90.0928 163.357 89.7107 163.477 89.7107 163.772V181.154L89.4494 211.058C89.4494 211.058 106.811 221.364 112.878 238.232C123.853 268.774 110.527 290.374 97.6365 302.48C85.2978 314.093 64.0998 314.441 64.0998 314.441L61.8477 344.027C71.0771 341.726 110.745 339.722 135.223 340.835L145.874 354.402C145.874 354.402 145.22 342.051 145.685 339.787C145.685 339.787 147.949 325.938 150.417 316.648C150.417 316.677 150.591 276.874 140.198 227.954ZM116.943 215.267L114.098 221.887C114.098 221.887 100.859 206.18 98.101 196.832C95.372 187.454 98.8559 175.842 98.8559 175.842C98.8559 175.842 111.63 174.883 115.607 179.151C119.585 183.419 125.159 195.206 116.943 215.267Z" fill="white" stroke="#8A8A8A" stroke-miterlimit="10"/>
</svg>
