<svg width="720" height="883" viewBox="0 0 720 883" fill="none" xmlns="http://www.w3.org/2000/svg">
<path d="M98.4573 569.992C98.4573 569.992 118.277 589.261 114.097 619.339C112.006 634.29 102.367 647.152 97.2578 651.681C97.2578 651.681 106.171 712.59 105.967 719.21C105.967 719.21 108.667 718.078 109.945 708.99C109.945 708.99 113.864 700.048 132.271 698.51V678.449C132.271 678.449 138.135 672.845 142.49 674.21C146.496 675.465 151.288 681.412 152.392 684.888C152.428 685.002 152.71 684.99 152.734 684.874C153.022 683.477 153.866 680.485 156.251 676.648C159.59 671.277 181.746 651.379 181.746 651.379L180.306 612.917C180.304 612.868 180.239 612.847 180.211 612.887C179.605 613.748 175.891 618.595 169.171 618.41C164.555 618.294 147.389 604.763 130.231 592.251C114.176 580.638 98.4573 569.992 98.4573 569.992Z" fill="white" stroke="#8A8A8A" stroke-miterlimit="10"/>
</svg>
