<svg width="720" height="883" viewBox="0 0 720 883" fill="none" xmlns="http://www.w3.org/2000/svg">
<path d="M362.735 412.209C337.186 412.209 286.752 416.477 286.752 416.477C291.368 472.596 291.485 485.789 291.892 515.866C292.327 546.873 293.605 639.399 293.605 639.399C293.605 639.399 343.482 640.473 360.118 640.473C376.724 640.473 426.601 639.399 426.601 639.399C426.601 639.399 428.314 552.94 428.692 517.376C429.069 482.102 429.076 482.921 433.082 416.612C433.082 416.612 384.102 412.209 362.735 412.209ZM410.616 494.805C410.616 495.357 410.168 495.805 409.616 495.805H310.943C310.391 495.805 309.943 495.357 309.943 494.805V455.679C309.943 455.126 310.391 454.679 310.943 454.679H409.616C410.168 454.679 410.616 455.126 410.616 455.679V494.805Z" fill="white" stroke="#8A8A8A" stroke-miterlimit="10"/>
</svg>
