<svg width="720" height="883" viewBox="0 0 720 883" fill="none" xmlns="http://www.w3.org/2000/svg">
<path d="M614.12 720.049C614.12 720.049 611.479 718.094 610.621 712.64C610.137 709.559 607.784 706.58 605.684 704.834C601.684 701.508 592.628 699.354 587.843 698.51V678.903C587.843 678.903 582.363 673.629 575.938 675.422C571.65 676.619 567.942 684.163 566.77 686.363C566.725 686.447 566.6 686.425 566.583 686.331C566.328 684.971 565.044 679.007 561.348 674.065C553.479 663.544 537.896 651.794 537.896 651.794L539.29 612.706C539.29 612.706 543.569 618.614 550.943 618.41C555.559 618.294 571.992 605.025 589.15 592.512C609.741 577.984 623.681 568.711 623.681 568.711C623.681 568.711 601.837 589.204 606.017 619.281C608.108 634.233 617.746 647.094 622.856 651.623C622.856 651.623 613.916 713.429 614.12 720.049Z" fill="white" stroke="#8A8A8A" stroke-miterlimit="10"/>
</svg>
