<svg width="720" height="883" viewBox="0 0 720 883" fill="none" xmlns="http://www.w3.org/2000/svg">
<path d="M264.178 341.063C264.178 341.063 262.221 344.831 261.323 347.473C260.424 350.115 259.578 354.593 259.578 354.593L251.391 340.802C251.391 340.802 253.045 301.202 256.413 270.167C261.087 226.996 270.436 202.783 270.436 202.783L274.616 199.27L307.713 179.035C308.178 178.744 308.671 178.512 309.223 178.367L319.152 175.754C319.704 175.609 320.255 175.493 320.807 175.435C325.684 174.854 350.42 171.864 353.816 171.196C357.591 170.441 357.504 168.061 357.504 168.061H363.455C363.455 168.061 364.036 170.325 365.72 170.993C367.229 171.573 393.358 174.535 399.31 175.202C400.123 175.29 400.907 175.435 401.691 175.667L410.749 178.106C412.345 178.541 413.884 179.209 415.307 180.109L445.5 199.241L449.71 202.957C449.71 202.957 456.242 225.254 458.216 235.125C460.655 247.29 464.836 278.064 464.836 278.064L468.436 341.238C463.036 347.248 460.278 353.867 460.278 353.867C460.278 353.867 458.29 345.448 455.59 341.238C455.59 341.238 435.862 319.086 359.913 319.086C283.965 319.086 264.178 341.063 264.178 341.063Z" fill="white" stroke="#8A8A8A" stroke-miterlimit="10"/>
</svg>
