<svg width="720" height="883" viewBox="0 0 720 883" fill="none" xmlns="http://www.w3.org/2000/svg">
<path d="M579.919 227.956C591.067 175.378 601.751 171.052 601.751 171.052C601.751 171.052 602.448 173.81 604.741 175.059C604.741 175.059 611.07 173.607 613.277 173.375C615.338 173.143 621.841 173.259 621.841 173.259L630.121 162.909C630.299 162.686 630.659 162.815 630.655 163.101L630.406 181.156L630.667 211.059C630.667 211.059 613.306 221.365 607.238 238.233C596.264 268.775 609.59 290.375 622.48 302.481C634.819 314.094 656.001 314.446 656.001 314.446L658.246 343.966C644.446 339.556 607.609 339.69 585.255 340.554C584.96 340.565 584.692 340.707 584.511 340.941L574.402 354.014C574.402 354.014 574.867 342.139 574.402 339.875C574.402 339.875 571.681 325.927 569.213 316.637C569.213 316.637 569.525 276.875 579.919 227.956ZM603.173 215.269L606.019 221.888C606.019 221.888 618.502 206.308 621.26 196.959C623.99 187.582 621.26 175.843 621.26 175.843C621.26 175.843 608.486 174.885 604.509 179.152C600.531 183.42 594.957 195.207 603.173 215.269Z" fill="white" stroke="#8A8A8A" stroke-miterlimit="10"/>
</svg>
