<svg width="720" height="883" viewBox="0 0 720 883" fill="none" xmlns="http://www.w3.org/2000/svg">
<path fill-rule="evenodd" clip-rule="evenodd" d="M425.817 639.109C375.881 641.287 293.668 639.367 293.668 639.367C285.306 640.441 275.372 670.116 281.323 681.177C288.088 693.777 324.843 703.329 360.117 703.126C395.391 702.922 420.156 696.303 432.639 687.419C444.716 678.825 440.029 664.498 436.399 653.401C436.277 653.027 436.155 652.656 436.036 652.29C432.088 640.096 425.817 639.109 425.817 639.109ZM347.813 670.518C375.87 670.518 402.186 669.251 417.72 666.397C430.147 664.114 427.692 678.172 424.883 683.672C423.615 686.155 418.37 691.988 408.066 694.683C397.763 697.377 370.164 700.794 350.667 699.843C331.169 698.892 314.258 697.893 303.681 691.59C291.355 684.244 291.405 673.533 293.763 669.408C295.678 664.891 303.157 666.189 308.875 667.182C309.936 667.366 310.937 667.54 311.83 667.664C316.395 668.298 333.717 670.518 347.813 670.518Z" fill="white" stroke="#8A8A8A" stroke-miterlimit="10"/>
</svg>
