<svg width="720" height="883" viewBox="0 0 720 883" fill="none" xmlns="http://www.w3.org/2000/svg">
<path d="M259.781 805.533L249.08 809.912C250.891 822.3 258.739 847.1 259.268 849.527C260.252 851.903 261.994 849.777 262.466 849.223C267.655 843.131 275.514 839.744 279.505 839.744H442.23C450.311 840.974 455.845 847.913 457.689 849.758C459.165 851.234 460.208 850.373 460.545 849.758C462.446 846.219 468.119 821.719 470.718 809.912L460.545 805.533C460.545 809.912 456.118 811.151 450.474 809.912C444.83 808.673 430.704 807.835 426.562 807.835C422.722 807.835 391.021 806.993 359.758 806.993C329.818 806.993 298.716 807.924 289.752 807.924C279.391 807.924 271.965 809.269 265.464 810.848C260.263 812.112 259.268 807.835 259.781 805.533Z" fill="white" stroke="#8A8A8A"/>
</svg>
