<svg width="720" height="514" viewBox="0 0 720 514" fill="none" xmlns="http://www.w3.org/2000/svg">
<path d="M429.566 187.619C429.566 187.619 442.371 190.683 448.392 200.847C450.748 204.824 469.175 263.963 469.175 263.963C469.175 263.963 470.386 266.898 470.653 268.252C470.919 269.586 474.942 305.689 474.655 315.069C474.675 319.482 473.513 329.376 463.764 337.934L468.06 344.986L518.56 322.044L513.755 315.89C513.755 315.89 507.613 318.921 501.928 311.368C496.243 303.815 496.591 301.962 496.591 301.962C496.591 301.962 496.17 281.376 489.89 261.036C483.609 240.717 466.917 213.575 466.917 213.575C466.917 213.575 463.459 206.528 460.647 196.635C457.859 183.497 463.517 175.262 463.517 175.262C463.517 175.262 454.555 177.988 448.582 180.113C441.253 182.719 434.588 185.522 429.566 187.619Z" fill="white" stroke="#8A8A8A" stroke-miterlimit="10"/>
</svg>
