<svg width="720" height="514" viewBox="0 0 720 514" fill="none" xmlns="http://www.w3.org/2000/svg">
<path fill-rule="evenodd" clip-rule="evenodd" d="M159.262 180.018C156.183 181.167 128.516 190.337 128.516 190.337L129.522 216.326L139.044 220.05C165.744 220.563 179.766 205.899 179.766 205.899C177.426 202.554 173.814 189.788 173.814 189.788C173.731 184.718 169.031 182.235 169.031 182.235C166.158 180.018 162.34 178.889 159.262 180.018ZM144.168 189.273L157.525 184.559C159.379 185.626 162.289 188.366 159.098 190.784C155.108 193.806 148.535 192.285 147.083 191.516C146.261 191.081 144.329 189.777 144.168 189.273Z" fill="white" stroke="#8A8A8A" stroke-miterlimit="10"/>
</svg>
