<svg width="720" height="514" viewBox="0 0 720 514" fill="none" xmlns="http://www.w3.org/2000/svg">
<path d="M143.28 372.803C143.181 372.845 143.086 372.729 143.161 372.65C145.396 370.282 158.577 356.361 162.011 353.791C165.746 350.979 194.962 339.448 200.585 337.252C206.209 335.055 208.527 334.084 210.025 330.43C211.585 326.592 209.672 322.559 209.672 322.559L215.692 317.404C215.692 317.404 217.949 318.759 221.131 319.539C224.599 320.401 232.624 320.401 232.624 320.401C231.824 325.84 228.519 331.361 214.604 338.031C203.13 343.532 165.078 361.573 165.078 361.573L164.401 363.708L143.28 372.803Z" fill="white" stroke="#8A8A8A" stroke-miterlimit="10"/>
</svg>
