<svg width="720" height="514" viewBox="0 0 720 514" fill="none" xmlns="http://www.w3.org/2000/svg">
<path d="M360.844 227.795C360.844 227.795 357.824 243.433 352.98 264.655C348.136 285.878 344.565 298.767 344.565 302.359C344.565 305.971 355.216 329.298 358.151 334.655C361.086 340.011 375.048 356.772 389.839 368.82C393.748 372.004 397.687 374.7 402.51 375.603L381.463 385.484C381.463 385.484 381.14 376.349 378.357 372.495C375.703 368.82 372.685 367.071 368.683 363.848C364.68 360.626 356.234 355.107 352.416 349.894C348.599 344.68 336.492 316.762 336.492 316.762L339.167 302.4L338.012 294.183L352.98 244.67L357.771 230.346L360.844 227.795Z" fill="white" stroke="#8A8A8A" stroke-miterlimit="10"/>
</svg>
