<svg width="720" height="514" viewBox="0 0 720 514" fill="none" xmlns="http://www.w3.org/2000/svg">
<path d="M226.288 357.582L225.344 375.91L227.53 387.652L226.987 391.267L232.958 396.004L255.576 386.604L256.767 373.098L275.303 349.844L268.548 346.889L226.288 357.582Z" fill="white" stroke="#8A8A8A" stroke-miterlimit="10"/>
<path d="M228.582 316.117C228.315 320.386 227.781 326.276 227.781 326.276L243.385 320.437C241.848 318.768 241.332 314.746 244.062 313.421C246.796 312.094 250.251 312.604 253.188 314.034C254.406 314.627 255.711 315.734 256.128 316.133L268.12 311.944C257.532 304.644 245.53 305.203 239.834 306.89C233.926 308.64 228.849 311.827 228.582 316.117Z" fill="white" stroke="#8A8A8A" stroke-miterlimit="10"/>
</svg>
