<svg width="720" height="514" viewBox="0 0 720 514" fill="none" xmlns="http://www.w3.org/2000/svg">
<path d="M97.8398 182.607C97.8398 182.607 119.514 192.027 157.217 218.586C194.264 244.673 214.377 264.238 214.377 264.238C214.377 264.238 225.532 250.359 238.627 242.334C251.721 234.309 319.184 210.629 349.13 198.602C379.095 186.574 423.071 169.902 434.565 166.146C445.402 162 459.974 155.678 478.159 152.908C499.689 147.961 527.578 152.668 527.578 152.668C527.578 152.668 508.867 132.079 485.323 118.478C461.78 104.877 432.364 90.3638 396.263 82.7129C358.293 77.0892 270.061 111.735 231.824 126.451C193.587 141.168 137.165 164.545 137.165 164.545L97.8398 182.607Z" fill="white" stroke="#8A8A8A" stroke-miterlimit="10"/>
</svg>
