<svg width="720" height="514" viewBox="0 0 720 514" fill="none" xmlns="http://www.w3.org/2000/svg">
<path d="M436.289 185.14C436.289 185.14 443.514 188.691 447.66 192.693C451.806 196.695 453.283 198.05 454.741 201.252C456.218 204.453 471.448 248.585 471.448 248.585C471.448 248.585 475.782 258.604 476.172 262.483C476.582 266.362 479.958 294.143 480.348 301.368C480.738 308.593 480.139 322.799 474.392 328.136L468.755 332.323L473.431 338.711L518.884 318.621L515.582 311.031C515.582 311.031 508.72 311.612 505.559 306.255C503.958 303.525 502.296 300.529 501.064 298.271C499.771 295.911 499.033 293.283 498.848 290.595C498.478 284.766 497.616 273.662 495.913 265.473C493.511 253.835 484.871 236.123 484.871 236.123L470.832 208.846C470.832 208.846 464.88 198.07 464.757 188.978C464.613 179.886 471.838 171.717 471.838 171.717L436.289 185.14Z" fill="white" stroke="#8A8A8A" stroke-miterlimit="10"/>
</svg>
