<svg width="720" height="514" viewBox="0 0 720 514" fill="none" xmlns="http://www.w3.org/2000/svg">
<path d="M33.5742 312.366V327.513C33.5742 327.513 33.841 329.32 35.442 331.187C37.0429 333.055 52.0258 349.167 52.0258 349.167L75.6905 374.043L98.5548 394.629L116.74 408.626C116.74 408.626 128.353 417.459 136.09 422.699C140.46 425.658 147.422 430.064 147.422 430.064C147.422 430.064 147.461 424.855 148.116 421.356C148.777 417.824 149.312 416.371 150.789 412.184L124.416 393.582L95.9687 371.559C95.9687 371.559 61.3439 339.069 52.7852 328.765C44.2264 318.462 39.0953 312.141 39.0953 312.141L33.5742 312.366Z" fill="white" stroke="#8A8A8A" stroke-miterlimit="10"/>
</svg>
