<svg width="720" height="514" viewBox="0 0 720 514" fill="none" xmlns="http://www.w3.org/2000/svg">
<path d="M526.912 152.73C526.912 152.73 535.994 154.883 543.485 157.818C550.977 160.753 607.152 185.095 612.755 188.051C617.004 190.288 623.018 193.202 625.706 194.475C626.589 194.906 627.266 195.645 627.615 196.548L628.641 199.257C629.113 200.488 629.154 201.823 628.785 203.075L626.979 209.314C626.712 210.258 626.958 211.284 627.656 211.982L630.961 215.307C631.638 215.984 631.987 216.929 631.925 217.893L628.477 269.861C628.395 271.052 627.636 272.098 626.527 272.55L595.058 285.878L588.553 279.977C588.553 279.977 598.86 274.808 600.995 261.569C602.904 249.809 601.734 208.903 601.446 199.934C601.405 198.826 601.918 197.8 600.995 197.163C584.452 186.08 550.073 173.129 550.073 173.129L526.912 152.73Z" fill="white" stroke="#8A8A8A" stroke-miterlimit="10"/>
</svg>
