<svg width="720" height="514" viewBox="0 0 720 514" fill="none" xmlns="http://www.w3.org/2000/svg">
<path d="M328.188 227.718L311.81 294.505L309.798 306.532L303.051 343.241C303.051 343.241 317.282 336.74 328.693 335.241C340.466 332.526 352.078 333.419 360.571 337.579C365.387 339.937 373.624 345.413 379.432 351.426C385.651 357.85 386.733 360.325 388.539 364.081L391.63 371.862L432.905 357.075L415.961 351.426C415.961 351.426 380.115 338.365 371.7 333.419C363.285 328.473 343.776 301.445 340.697 296.232L338.471 290.235L341.673 259.346L346.743 220.473L328.188 227.718Z" fill="white" stroke="#8A8A8A" stroke-miterlimit="10"/>
</svg>
