<svg width="720" height="514" viewBox="0 0 720 514" fill="none" xmlns="http://www.w3.org/2000/svg">
<path d="M125.327 214.189L134.461 220.612C134.461 220.612 130.987 222.892 129.776 223.693C128.565 224.493 130.819 227.456 134.165 227.989C137.51 228.523 143.082 226.656 143.082 226.656L151.709 233.286C151.709 233.286 138.52 235.658 129.312 234.195C121.264 232.917 114.728 230.495 110.382 225.419C108.665 223.413 110.45 220.859 113.18 219.525C114.678 218.848 125.327 214.189 125.327 214.189Z" fill="white" stroke="#8A8A8A" stroke-miterlimit="10"/>
<path d="M151.723 233.437L161.34 241.201L168.516 291.193C168.516 291.193 157.195 298.245 146.666 299.99C136.137 301.734 123.576 296.254 123.576 296.254L109.393 283.016L107.402 257.545L109.593 224.509C109.6 224.398 109.794 224.362 109.845 224.46C110.59 225.903 113.608 230.235 123.996 233.437C135.857 236.167 151.723 233.437 151.723 233.437Z" fill="white" stroke="#8A8A8A" stroke-miterlimit="10"/>
</svg>
