<svg width="720" height="514" viewBox="0 0 720 514" fill="none" xmlns="http://www.w3.org/2000/svg">
<path d="M518.197 191.105L517.798 197.659H513.57L492.736 187.981L501.622 165.617L513.385 180.808L518.197 191.105C516.124 186.959 513.385 161.943 513.385 161.943L504.595 152.617C504.595 152.617 499.86 154.621 496.862 155.984C493.964 157.301 489.494 159.472 489.494 159.472L477.467 192.446L471.043 201.066L515.643 220.4C518.393 206.238 518.197 191.105 518.197 191.105Z" fill="white"/>
<path d="M518.197 191.105L517.798 197.659H513.57L492.736 187.981L501.622 165.617L513.385 180.808L518.197 191.105ZM518.197 191.105C516.124 186.959 513.385 161.943 513.385 161.943L504.595 152.617C504.595 152.617 499.86 154.621 496.862 155.984C493.964 157.301 489.494 159.472 489.494 159.472L477.467 192.446L471.043 201.066L515.643 220.4C518.393 206.238 518.197 191.105 518.197 191.105Z" stroke="#8A8A8A" stroke-miterlimit="10"/>
<path d="M525.834 169.928L539.459 186.871L576.978 203.66L603.488 198.793L586.111 250.907L531.495 227.091C531.495 227.091 532.173 212.269 531.495 197.963C530.297 187.308 525.834 169.928 525.834 169.928Z" fill="white" stroke="#8A8A8A" stroke-miterlimit="10"/>
<path d="M523.292 160.36C523.292 160.36 524.926 154.238 526.178 150.852C527.43 147.445 532.869 144.243 537.938 145.803C543.008 147.363 605.661 172.149 605.661 172.149L601.932 165.144L597.871 158.164L547.047 137.266C547.047 137.266 539.626 139.474 534.938 141.007C530.028 142.612 523.415 144.912 523.415 144.912L521.699 154.648L523.292 160.36Z" fill="white" stroke="#8A8A8A" stroke-miterlimit="10"/>
<path d="M611.463 162.645C611.463 162.645 617.249 165.01 620.836 167.098C624.616 169.299 630.084 173.662 630.084 173.662L621.259 178.252C621.259 178.252 614.339 167.791 611.463 162.645Z" fill="white" stroke="#8A8A8A" stroke-miterlimit="10"/>
</svg>
