<svg width="720" height="514" viewBox="0 0 720 514" fill="none" xmlns="http://www.w3.org/2000/svg">
<path d="M29.834 331.386L37.035 330.506L36.4214 325.707L50.2323 323.056L59.3041 320.695C59.3041 320.695 62.5059 323.281 65.2562 323.548L66.4056 330.814L68.1912 345.078L49.9262 349.9L34.268 338L29.834 331.386Z" fill="white" stroke="#8A8A8A" stroke-miterlimit="10"/>
<path d="M75.2129 317.29L90.0726 314.766L124.85 336.448L113.204 338.841L97.4204 342.125H86.7271H77.9016L76.3828 327.511L75.2129 317.29Z" fill="white" stroke="#8A8A8A" stroke-miterlimit="10"/>
<path d="M133.457 305.538L142.799 305.059C142.799 305.059 159.435 304.116 168.794 303.582C178.154 303.048 186.291 302.596 186.291 302.596C186.291 302.596 192.6 303.801 196.583 304.825C200.729 305.89 207.082 307.973 207.082 307.973L218.165 319.98L223.132 325.357L226.927 327.246L219.211 342.383C219.211 342.383 203.675 334.983 196.635 333.485C189.595 331.966 179.026 331.416 179.026 331.416L171.797 328.588L133.457 305.538Z" fill="white" stroke="#8A8A8A" stroke-miterlimit="10"/>
</svg>
