<svg width="720" height="514" viewBox="0 0 720 514" fill="none" xmlns="http://www.w3.org/2000/svg">
<path d="M218.645 364.566C218.179 363.181 217.199 362.043 215.912 361.353C185.615 345.107 160.82 340.762 160.82 340.762L156.264 342.773L149.039 351.476L147.582 350.572L149.039 404.075L164.057 400.54L171.508 397.452L183.849 406.05C184.465 410.052 185.12 410.543 185.12 410.543C185.12 410.543 192.961 414.088 205.355 419.512C217.916 425.526 220.793 422.593 220.793 422.593C234.923 415.916 221.978 374.478 218.645 364.566ZM210.839 407.097C207.493 405.763 180.606 394.125 172.868 389.713C165.11 385.3 166.875 375.12 166.588 357.489C166.485 351.476 171.534 350.675 174.202 351.332C176.871 352.009 187.441 356.011 198.668 359.213C207.37 361.574 210.51 365.945 211.988 371.117C213.507 376.372 214.595 379.143 218.72 394.125C221.262 405.998 215.344 408.754 210.839 407.097Z" fill="white" stroke="#8A8A8A" stroke-miterlimit="10"/>
</svg>
