<svg width="720" height="514" viewBox="0 0 720 514" fill="none" xmlns="http://www.w3.org/2000/svg">
<path d="M225.3 345.774L369.704 279.957L384.885 289.252V336.964C384.885 336.964 383.542 347.55 395.315 378.531L395.624 390.168C395.626 390.255 395.523 390.304 395.458 390.246L381.501 377.914C381.501 377.914 340.992 366.522 335.532 366.522C329.95 366.522 307.481 373.983 307.481 373.983C307.481 373.983 284.37 371.697 269.058 381.466C269.058 381.466 268.053 403.53 258.016 406.342C247.98 409.154 225.875 416.242 225.875 416.242C225.875 416.242 231.87 402.547 217.85 362.328V353.245H220.887L220.436 347.703L225.3 345.774Z" fill="white" stroke="#8A8A8A" stroke-miterlimit="10"/>
</svg>
