<svg width="720" height="514" viewBox="0 0 720 514" fill="none" xmlns="http://www.w3.org/2000/svg">
<path d="M431.197 215.708L470.65 200.889L515.25 220.223L509.729 253.472L431.197 215.708Z" fill="white" stroke="#8A8A8A" stroke-miterlimit="10"/>
<path d="M531.567 227.098L585.949 250.968C585.949 250.968 581.122 274.846 569.711 282.411L530.602 262.812L531.567 227.098Z" fill="white" stroke="#8A8A8A" stroke-miterlimit="10"/>
<path d="M349.891 243.062L393.049 227.938L404.7 233.692L385.993 262.191L349.891 243.062Z" fill="white" stroke="#8A8A8A" stroke-miterlimit="10"/>
<path d="M415.876 239.434L432.727 248.054L428.581 251.399L432.836 254.514L431.96 256.045L426.734 258.645L420.514 259.649L403.988 266.182C404.009 266.162 405.946 256.81 415.876 239.434Z" fill="white" stroke="#8A8A8A" stroke-miterlimit="10"/>
<path d="M455.081 302.404L430.533 288.666L435.374 282.905L441.117 280.776L448.782 280.198L468.867 271.652L477.328 276.622H489.069L504.72 284.812C504.72 284.812 502.519 302.461 497.552 308.475C492.585 314.488 484.41 318.105 484.41 318.105L455.081 302.404Z" fill="white" stroke="#8A8A8A" stroke-miterlimit="10"/>
<path d="M329.593 250.074L316.041 255.457L368.639 280.4C368.639 280.4 372.455 279.554 374.178 278.811C375.901 278.067 377.505 276.608 377.505 276.608L329.593 250.074Z" fill="white" stroke="#8A8A8A" stroke-miterlimit="10"/>
<path d="M453.5 320.148L410.304 296.482L401.245 299.498C401.245 299.498 400.551 327.208 402.88 349.901L464.296 326.387L453.5 320.148Z" fill="white" stroke="#8A8A8A" stroke-miterlimit="10"/>
</svg>
