<svg width="720" height="514" viewBox="0 0 720 514" fill="none" xmlns="http://www.w3.org/2000/svg">
<path d="M188.754 201.534L170.302 209.415L170.569 226.266L169.625 228.934L173.504 232.669L180.051 267.048L207.062 307.974L223.112 325.358L243.698 336.051L282.489 319.467C282.489 319.467 279.195 313.635 282.807 308.422C286.313 303.362 292.978 302.631 296.2 302.097C299.423 301.564 308.71 301.586 315.256 304.651L342.496 292.384L368.902 280.51C368.902 280.51 305.882 250.648 265.681 231.886C244.598 222.046 211.639 206.808 211.639 206.808L195.322 199.953L191.853 200.035L188.754 201.534Z" fill="white" stroke="#8A8A8A" stroke-miterlimit="10"/>
</svg>
