<svg width="720" height="514" viewBox="0 0 720 514" fill="none" xmlns="http://www.w3.org/2000/svg">
<path d="M579.794 130.131C579.794 130.131 586.776 130.131 591.948 131.403L619.698 176.098C619.698 176.098 623.24 180.871 625.641 183.825C629.085 188.062 632.759 191.575 634.873 194.326C636.987 197.076 637.418 202.207 632.8 215.384C628.182 228.561 615.683 260.928 612.071 269.753C608.643 278.128 605.177 291.117 604.832 292.424C604.816 292.484 604.751 292.507 604.695 292.481L574.18 278.299C574.18 278.299 581.273 270.3 585.685 252.505C588.661 240.478 610.47 183.017 608.253 178.07C603.368 164.442 579.794 130.131 579.794 130.131Z" fill="white" stroke="#8A8A8A" stroke-miterlimit="10"/>
</svg>
