<svg width="720" height="514" viewBox="0 0 720 514" fill="none" xmlns="http://www.w3.org/2000/svg">
<path d="M147.582 407.713V404.433L164.104 400.571L172.232 409.171V428.074L202.002 421.382C202.002 421.382 191.36 449.074 181.798 451.515C176.544 452.582 174.428 446.338 173.975 443.553C173.42 440.139 173.42 433.927 173.42 433.927L166.805 431.955L167.471 423.665L147.603 414.876V407.713H147.582Z" fill="white"/>
<path d="M164.105 400.451L171.515 397.455L182.762 405.459L183.871 406.239C183.871 406.239 184.363 409.728 185.164 410.57L207.125 420.319L200.578 421.715L172.233 427.954V409.051L164.105 400.451Z" fill="white"/>
<path d="M182.321 394.393L216.133 384.916C216.133 384.916 219.647 395.861 219.339 398.94C219.052 401.998 219.224 408.001 211.835 407.426C211.26 407.467 204.672 404.45 204.672 404.45L182.321 394.393Z" fill="white"/>
<path d="M147.582 407.713V404.433L164.104 400.571L172.232 409.171V428.074L202.002 421.382C202.002 421.382 191.36 449.074 181.798 451.515C176.544 452.582 174.428 446.338 173.975 443.553C173.42 440.139 173.42 433.927 173.42 433.927L166.805 431.955L167.471 423.665L147.603 414.876V407.713H147.582Z" stroke="#8A8A8A" stroke-miterlimit="10"/>
<path d="M164.105 400.451L171.515 397.455L182.762 405.459L183.871 406.239C183.871 406.239 184.363 409.728 185.164 410.57L207.125 420.319L200.578 421.715L172.233 427.954V409.051L164.105 400.451Z" stroke="#8A8A8A" stroke-miterlimit="10"/>
<path d="M182.321 394.393L216.133 384.916C216.133 384.916 219.647 395.861 219.339 398.94C219.052 401.998 219.224 408.001 211.835 407.426C211.26 407.467 204.672 404.45 204.672 404.45L182.321 394.393Z" stroke="#8A8A8A" stroke-miterlimit="10"/>
</svg>
