<svg width="720" height="514" viewBox="0 0 720 514" fill="none" xmlns="http://www.w3.org/2000/svg">
<path d="M54.168 247.976L180.969 193.555L188.839 201.449L170.303 209.385L170.527 225.921C170.527 225.921 148.312 234.681 124.524 239.628C100.737 244.574 65.3568 258.661 65.3568 258.661L54.168 247.976Z" fill="white"/>
<path d="M118.826 240.95L121.39 264.368C121.39 264.368 107.225 270.073 102.074 286.554L81.4084 274.105L65.3099 258.635C65.3099 258.656 97.9735 245.979 118.826 240.95Z" fill="white"/>
<path d="M54.168 247.976L180.969 193.555L188.839 201.449L170.303 209.385L170.527 225.921C170.527 225.921 148.312 234.681 124.524 239.628C100.737 244.574 65.3568 258.661 65.3568 258.661L54.168 247.976Z" stroke="#8A8A8A" stroke-miterlimit="10"/>
<path d="M118.826 240.95L121.39 264.368C121.39 264.368 107.225 270.073 102.074 286.554L81.4084 274.105L65.3099 258.635C65.3099 258.656 97.9735 245.979 118.826 240.95Z" stroke="#8A8A8A" stroke-miterlimit="10"/>
</svg>
