<svg width="720" height="514" viewBox="0 0 720 514" fill="none" xmlns="http://www.w3.org/2000/svg">
<path d="M29.1582 338.26L36.4451 337.379V332.449L50.3775 329.819L58.7969 327.736C58.7969 327.736 62.6512 330.727 65.4015 330.994L66.5509 338.26L68.3365 352.524L50.3775 357.183L32.9389 344.008L29.1582 338.26Z" fill="white" stroke="#8A8A8A" stroke-miterlimit="10"/>
<path d="M74.959 324.233L90.5548 321.969L125.426 343.561L113.686 346.044L97.9026 349.328H87.2093H77.9098L75.6951 334.432L74.959 324.233Z" fill="white" stroke="#8A8A8A" stroke-miterlimit="10"/>
<path d="M133.336 312.22C133.336 312.22 160.387 311.017 169.747 310.483C179.106 309.949 185.535 309.465 185.535 309.465L206.853 313.953L219.519 327.477L224.485 332.855L227.913 334.64L220.011 349.623C220.011 349.623 205.028 342.481 197.988 340.983C190.948 339.464 180.645 338.807 180.645 338.807L174.057 336.282L133.336 312.22Z" fill="white" stroke="#8A8A8A" stroke-miterlimit="10"/>
</svg>
