<svg width="720" height="514" viewBox="0 0 720 514" fill="none" xmlns="http://www.w3.org/2000/svg">
<path d="M226.467 351.698L369.918 286.582L384.527 296.2V342.852C384.527 342.852 382.125 352.745 394.748 385.523L395.343 396.749L381.838 384.455C381.838 384.455 341.384 372.879 335.925 372.879C330.342 372.879 307.472 380.841 307.472 380.841C307.472 380.841 283.519 376.669 268.607 388.954C268.607 388.954 270.406 405.914 260.369 408.726C250.333 411.538 227.941 417.853 227.941 417.853C227.941 417.853 229.185 398.03 219.017 369.196L219.016 359.81H220.85L220.563 354.406L226.467 351.698Z" fill="white" stroke="#8A8A8A" stroke-miterlimit="10"/>
</svg>
