<svg width="720" height="514" viewBox="0 0 720 514" fill="none" xmlns="http://www.w3.org/2000/svg">
<path d="M148.086 413.823L147.527 411.369L148.878 411.227L164.436 407.594L172.564 416.194V433.415L201.253 425.442C201.253 425.442 190.646 455.273 179.603 457.859C177.551 457.92 175.314 456.073 174.411 454.308C173.549 452.605 172.933 450.018 172.687 448.028L171.927 438.607L167.432 439.038L168.089 430.766L147.914 421.9L148.086 413.823Z" fill="white"/>
<path d="M164.418 407.627L171.828 404.63L183.075 412.635L184.184 413.415C184.184 413.415 184.676 416.904 185.477 417.746L202.157 425.171L172.546 433.461V416.227L164.418 407.627Z" fill="white"/>
<path d="M181.938 401.168L216.152 391.809C216.152 391.809 219.785 402.502 219.477 405.581C219.19 408.639 218.553 417.252 211.774 414.623C209.945 413.914 204.289 411.225 204.289 411.225L181.938 401.168Z" fill="white"/>
<path d="M148.086 413.823L147.527 411.369L148.878 411.227L164.436 407.594L172.564 416.194V433.415L201.253 425.442C201.253 425.442 190.646 455.273 179.603 457.859C177.551 457.92 175.314 456.073 174.411 454.308C173.549 452.605 172.933 450.018 172.687 448.028L171.927 438.607L167.432 439.038L168.089 430.766L147.914 421.9L148.086 413.823Z" stroke="#8A8A8A" stroke-miterlimit="10"/>
<path d="M164.418 407.627L171.828 404.63L183.075 412.635L184.184 413.415C184.184 413.415 184.676 416.904 185.477 417.746L202.157 425.171L172.546 433.461V416.227L164.418 407.627Z" stroke="#8A8A8A" stroke-miterlimit="10"/>
<path d="M181.938 401.168L216.152 391.809C216.152 391.809 219.785 402.502 219.477 405.581C219.19 408.639 218.553 417.252 211.774 414.623C209.945 413.914 204.289 411.225 204.289 411.225L181.938 401.168Z" stroke="#8A8A8A" stroke-miterlimit="10"/>
</svg>
