<svg width="720" height="514" viewBox="0 0 720 514" fill="none" xmlns="http://www.w3.org/2000/svg">
<path d="M432.129 222.687L470.372 208.031L515.967 227.539C515.967 227.539 514.476 237.815 513.218 244.314C511.961 250.813 510.405 260.806 510.405 260.806L432.129 222.687Z" fill="white" stroke="#8A8A8A" stroke-miterlimit="10"/>
<path d="M531.677 234.531L585.677 258.073C585.677 258.073 581.046 281.769 569.238 289.241L530.486 270.018L531.677 234.531Z" fill="white" stroke="#8A8A8A" stroke-miterlimit="10"/>
<path d="M350.25 249.654L392.51 235.268L405.037 240.853L386.925 269.143L350.25 249.654Z" fill="white" stroke="#8A8A8A" stroke-miterlimit="10"/>
<path d="M416.007 245.635L433.087 254.651L428.941 257.996L433.231 261.075L432.286 262.676L427.073 265.221L421.449 265.898L403.574 272.106C403.595 272.086 405.476 263.474 416.007 245.635Z" fill="white" stroke="#8A8A8A" stroke-miterlimit="10"/>
<path d="M455.89 308.891L430.426 295.481L435.822 289.222L441.477 287.107L448.901 286.848L468.473 278.783L477.379 283.687H488.709L504.925 291.655C504.925 291.655 502.5 309.357 497.533 315.37C492.566 321.384 485.219 324.592 485.219 324.592L455.89 308.891Z" fill="white" stroke="#8A8A8A" stroke-miterlimit="10"/>
<path d="M329.457 256.35L315.623 261.686L368.959 286.852C368.959 286.852 374.366 285.586 375.747 284.79C377.555 283.747 377.695 283.412 377.695 283.412L329.457 256.35Z" fill="white" stroke="#8A8A8A" stroke-miterlimit="10"/>
<path d="M452.7 325.866L410.268 302.561L401.143 305.547C401.143 305.547 400.613 327.891 402.789 356.379L464.222 332.88L452.7 325.866Z" fill="white" stroke="#8A8A8A" stroke-miterlimit="10"/>
</svg>
