<svg width="720" height="514" viewBox="0 0 720 514" fill="none" xmlns="http://www.w3.org/2000/svg">
<path d="M54.1035 254.783L180.751 200.508L187.854 207.819L170.478 215.34L170.834 232.518C170.834 232.518 148.373 241.955 124.585 246.902C100.797 251.848 65.5357 265.825 65.5357 265.825L54.1035 254.783Z" fill="white"/>
<path d="M119.316 248.231L121.04 270.951C121.04 270.951 106.625 276.541 101.473 293.022L81.1819 280.75L65.6079 265.889C65.6079 265.91 98.4635 253.259 119.316 248.231Z" fill="white"/>
<path d="M54.1035 254.783L180.751 200.508L187.854 207.819L170.478 215.34L170.834 232.518C170.834 232.518 148.373 241.955 124.585 246.902C100.797 251.848 65.5357 265.825 65.5357 265.825L54.1035 254.783Z" stroke="#8A8A8A" stroke-miterlimit="10"/>
<path d="M119.316 248.231L121.04 270.951C121.04 270.951 106.625 276.541 101.473 293.022L81.1819 280.75L65.6079 265.889C65.6079 265.91 98.4635 253.259 119.316 248.231Z" stroke="#8A8A8A" stroke-miterlimit="10"/>
</svg>
