<svg width="720" height="514" viewBox="0 0 720 514" fill="none" xmlns="http://www.w3.org/2000/svg">
<path d="M218.823 369.044C187.626 351.906 160.177 346.695 160.177 346.695L155.62 348.707L148.396 357.409L147.914 357.265L149.039 411.172L164.481 407.648L171.978 404.573L183.895 413.031C184.511 417.033 185.369 417.324 185.369 417.324C185.369 417.324 191.648 420.527 204.719 426.294C217.28 432.308 221.635 430.202 221.635 430.202C237.705 422.608 218.823 369.044 218.823 369.044ZM213.136 415.228C209.791 413.894 182.288 401.795 174.55 397.383C166.792 392.97 166.936 382.06 166.648 364.429C166.546 358.416 171.253 357.218 173.922 357.874C176.59 358.552 186.658 362.568 197.885 365.77C206.157 369.044 209.867 371.879 211.344 377.051C212.863 382.305 214.095 384.219 218.22 399.202C221.36 410.634 216.461 416.562 213.136 415.228Z" fill="white" stroke="#8A8A8A" stroke-miterlimit="10"/>
</svg>
