<svg width="720" height="514" viewBox="0 0 720 514" fill="none" xmlns="http://www.w3.org/2000/svg">
<path d="M441.785 183.962C441.785 183.962 451.853 187.14 455.719 188.356C455.937 188.295 458.619 181.678 488.287 167.547C504.563 160.692 523.513 153.055 523.513 153.055L546.952 145.194L582.952 133.413L595.205 129.164C595.205 129.164 635.474 115.762 639.394 114.592C643.314 113.443 650.796 111.494 654.798 115.968C658.801 120.422 662.751 125.756 662.751 125.756L673.128 122.059C673.128 122.059 664.642 110.263 661.44 107.143C658.238 104.023 654.726 101.928 652.222 102.462C650.559 102.811 640.708 103.529 615.545 112.888C590.381 122.268 561.052 130.704 561.052 130.704C561.052 130.704 532.309 139.465 509.753 148.598C487.197 157.732 454.1 174.213 441.785 183.962Z" fill="white" stroke="#8A8A8A" stroke-miterlimit="10"/>
</svg>
