<svg width="720" height="514" viewBox="0 0 720 514" fill="none" xmlns="http://www.w3.org/2000/svg">
<path d="M580.096 134.383L595.367 129.285C595.367 129.285 595.617 134.191 597.243 136.984C602.607 146.198 611.002 164.057 622.787 182.71L628.025 190.612C628.025 190.612 632.971 198.048 635.085 200.777C637.199 203.507 637.303 209.767 632.684 222.943C627.618 238.592 616.107 267.274 612.495 276.1C608.189 288.806 604.325 299.656 604.325 299.656L573.482 285.851C573.482 285.851 581.585 276.551 585.72 258.795C588.696 246.767 610.267 189.258 608.051 184.311C603.914 172.768 604.96 172.472 586.249 137.917C585.074 135.748 582.284 134.563 580.096 134.383Z" fill="white" stroke="#8A8A8A" stroke-miterlimit="10"/>
</svg>
