<svg width="720" height="883" viewBox="0 0 720 883" fill="none" xmlns="http://www.w3.org/2000/svg">
<path d="M261.84 801.734L298.537 803.07C298.537 803.07 307.798 811.954 316.711 813.086C325.624 814.218 399.569 814.044 406.188 813.086C412.808 812.128 423.027 802.867 423.027 802.867C423.027 802.867 453.685 803.07 458.766 801.734C458.766 801.734 458.388 815.728 459.724 819.328C461.059 822.928 472.033 828.212 472.033 828.212C472.033 828.212 469.391 860.38 459.346 866.418C459.346 866.418 455.833 868.509 452.146 867.841C452.146 867.841 443.262 858.667 434.262 858.667C434.262 858.667 434.262 853.644 434.262 851.38C434.262 849.115 431.04 845.718 425.93 845.718C420.821 845.718 419.108 848.563 419.108 851.96C419.108 855.357 418.904 860.554 418.904 860.554L302.079 860.176C302.079 860.176 302.079 855.27 302.079 851.38C302.079 847.489 297.172 845.718 294.617 845.718C292.062 845.718 287.04 847.809 287.04 850.741C287.04 853.673 286.662 857.825 286.662 857.825C286.662 857.825 282.975 858.405 278.533 860.67C274.092 862.934 269.359 867.928 268.314 867.986C267.269 868.044 264.917 868.131 262.914 867.376C260.911 866.621 251.388 858.115 249.095 833.525V827.66C249.095 827.66 258.937 825.947 260.998 819.705C263.175 813.463 261.84 801.734 261.84 801.734Z" fill="white" stroke="#757575" stroke-miterlimit="10"/>
</svg>
