<svg width="720" height="883" viewBox="0 0 720 883" fill="none" xmlns="http://www.w3.org/2000/svg">
<path d="M640.886 569.971C627.27 575.633 608.195 589.423 609.618 614.652C611.041 639.91 618.124 643.307 629.476 654.949C629.476 654.949 625.208 686.739 624.076 693.242C622.944 699.775 621.231 705.349 614.699 706.394C608.166 707.439 581.224 698.352 581.224 698.352C581.224 698.352 577.77 703.81 574.605 709.094C572.341 712.868 568.247 720.939 568.247 720.939C568.247 720.939 570.744 649.81 570.454 624.262C570.163 598.713 570.163 587.942 570.163 587.942L578.67 591.542C578.67 591.542 581.312 592.762 597.86 584.081C614.408 575.371 637.402 562.539 637.402 562.539L640.886 569.971Z" fill="white" stroke="#757575" stroke-miterlimit="10"/>
</svg>
