<svg width="720" height="883" viewBox="0 0 720 883" fill="none" xmlns="http://www.w3.org/2000/svg">
<path d="M78.3574 568.695C91.9736 574.356 112.703 589.395 111.28 614.653C109.857 639.911 102.774 643.308 91.4219 654.95C91.4219 654.95 95.6897 686.74 96.8219 693.243C97.9542 699.776 99.6671 705.35 106.199 706.395C112.732 707.44 139.674 698.353 139.674 698.353C139.674 698.353 143.128 703.811 146.293 709.095C148.557 712.869 152.651 720.94 152.651 720.94C152.651 720.94 150.154 649.811 150.445 624.263C150.735 598.714 150.735 587.943 150.735 587.943L142.228 591.543C142.228 591.543 139.586 592.763 123.038 584.082C106.49 575.401 81.4348 561.379 81.4348 561.379L78.3574 568.695Z" fill="white" stroke="#757575" stroke-miterlimit="10"/>
</svg>
