<svg width="720" height="883" viewBox="0 0 720 883" fill="none" xmlns="http://www.w3.org/2000/svg">
<path d="M115.808 159.892L114.85 199.986C114.85 199.986 108.405 192.786 92.7276 186.921C77.0502 181.057 74.9599 182.566 69.4728 181.637C63.9857 180.679 57.5696 184.279 56.6115 156.67L55.6535 132.457C55.6535 132.457 51.5018 131.324 49.5857 148.541C47.6696 165.757 45.8115 209.073 45.8115 209.073C45.8115 209.073 54.6954 209.073 66.4244 209.073C78.1535 209.073 110.118 220.976 110.118 255.989C110.118 291.002 83.8438 307.057 55.6535 307.057L55.8567 327.292C55.8567 327.292 78.9373 318.96 129.831 323.141C129.831 323.141 138.715 325.231 141.734 328.047C141.734 328.047 143.07 321.05 144.753 320.092C144.753 320.092 139.092 268.066 135.666 246.873C132.27 225.708 127.16 178.618 115.808 159.892Z" fill="white" stroke="#757575" stroke-miterlimit="10"/>
</svg>
