<svg width="720" height="883" viewBox="0 0 720 883" fill="none" xmlns="http://www.w3.org/2000/svg">
<path d="M605.089 159.892L606.047 199.986C606.047 199.986 612.492 192.786 628.17 186.921C643.876 181.057 645.937 182.566 651.424 181.637C656.912 180.679 663.328 184.279 664.286 156.67L665.244 132.457C665.244 132.457 669.395 131.324 671.312 148.541C673.199 165.757 675.086 209.073 675.086 209.073C675.086 209.073 666.202 209.073 654.473 209.073C642.744 209.073 610.779 220.976 610.779 255.989C610.779 291.002 637.083 307.057 665.273 307.057L665.07 327.292C665.07 327.292 641.989 318.96 591.095 323.141C591.095 323.141 582.212 325.231 579.192 328.047C579.192 328.047 577.857 321.05 576.173 320.092C576.173 320.092 581.834 268.066 585.26 246.873C588.628 225.708 593.737 178.618 605.089 159.892Z" fill="white" stroke="#757575" stroke-miterlimit="10"/>
</svg>
