<svg width="720" height="883" viewBox="0 0 720 883" fill="none" xmlns="http://www.w3.org/2000/svg">
<path d="M315.957 142.588L306.057 146.71C306.057 146.71 301.383 154.781 300.251 158.062C300.251 158.062 288.522 162.591 278.448 171.939C268.344 181.259 258.764 197.285 258.764 197.285C258.764 197.285 255.425 224.778 254.293 248.904C253.161 273.03 252.028 320.701 252.028 320.701C252.028 320.701 258.328 323.023 261.725 325.114C261.725 325.114 264.512 319.307 267.212 317.856L270.173 313.501L269.796 309.901C269.796 309.901 288.348 294.775 325.974 290.217C363.599 285.659 400.122 290.594 409.964 292.859C419.806 295.123 445.325 303.456 451.567 310.452V313.675L454.586 317.275L460.073 324.649C460.073 324.649 466.025 321.049 469.828 320.207L470.264 320.12C470.264 320.12 468.232 258.252 467.651 248.323C467.07 238.394 463.383 198.678 463.383 198.678C463.383 198.678 450.319 168.978 422.912 158.846L416.003 146.275L406.248 142.675C406.248 142.675 406.248 144.098 406.219 145.114C406.19 145.985 405.899 147.872 405.899 147.872C405.899 147.872 377.244 146.333 361.132 146.333C345.019 146.333 315.696 147.988 315.696 147.988C315.696 147.988 315.493 146.217 315.551 145.317C315.609 144.069 315.957 142.588 315.957 142.588Z" fill="white" stroke="#757575" stroke-miterlimit="10"/>
</svg>
