<svg width="720" height="883" viewBox="0 0 720 883" fill="none" xmlns="http://www.w3.org/2000/svg">
<path d="M316.392 73.9558H305.534C305.534 73.9558 306.55 67.3945 305.534 65.13L259.488 66.001V79.9945L260.737 82.6365L253.914 95.1203C253.914 95.1203 248.746 89.0526 247.73 84.2623C246.714 79.4719 247.614 42.3978 252.143 28.1429C256.672 13.8881 258.705 13.3945 266.776 14.2655C274.846 15.1365 280.769 16.0365 280.769 16.0365L282.54 17.8074L437.921 18.1849L440.563 16.0945C440.563 16.0945 453.047 13.9752 457.198 14.0042C461.35 14.0332 465.908 16.2978 468.724 28.9558C471.569 41.6429 475.721 66.2332 474.008 80.6042C472.672 91.7526 467.679 95.1203 467.679 95.1203L460.624 82.4042L460.972 65.8558L415.159 64.9268L415.072 73.9268L404.911 74.159L401.921 57.3784H366.734H320.863L316.392 73.9558Z" fill="white" stroke="#757575" stroke-miterlimit="10"/>
</svg>
